<?xml version="1.0" encoding="UTF-8" standalone="no"?>
<!-- Created with Inkscape (http://www.inkscape.org/) -->

<svg
   xmlns:dc="http://purl.org/dc/elements/1.1/"
   xmlns:cc="http://creativecommons.org/ns#"
   xmlns:rdf="http://www.w3.org/1999/02/22-rdf-syntax-ns#"
   xmlns:svg="http://www.w3.org/2000/svg"
   xmlns="http://www.w3.org/2000/svg"
   xmlns:sodipodi="http://sodipodi.sourceforge.net/DTD/sodipodi-0.dtd"
   xmlns:inkscape="http://www.inkscape.org/namespaces/inkscape"
   width="861.36078"
   height="493.96628"
   id="svg3881"
   version="1.1"
   inkscape:version="0.48.2 r9819"
   sodipodi:docname="sleeve-jagdpanzers-outline-only.svg">
  <defs
     id="defs3883">
    <inkscape:perspective
       sodipodi:type="inkscape:persp3d"
       inkscape:vp_x="0 : 526.18109 : 1"
       inkscape:vp_y="0 : 1000 : 0"
       inkscape:vp_z="744.09448 : 526.18109 : 1"
       inkscape:persp3d-origin="372.04724 : 350.78739 : 1"
       id="perspective3954" />
    <clipPath
       clipPathUnits="userSpaceOnUse"
       id="clipPath3972">
      <rect
         style="opacity:0.34913797;fill:#d40000;fill-opacity:1;fill-rule:nonzero;stroke:#fb1414;stroke-width:0.40000001;stroke-linecap:round;stroke-linejoin:round;stroke-miterlimit:4;stroke-opacity:1;stroke-dasharray:none;stroke-dashoffset:18.50120495"
         id="rect3974"
         width="861.36078"
         height="493.96628"
         x="260.98447"
         y="-162.95175"
         ry="61.94611"
         rx="54.885082" />
    </clipPath>
    <clipPath
       clipPathUnits="userSpaceOnUse"
       id="clipPath4505">
      <path
         style="fill:none;stroke:#000000;stroke-width:1px;stroke-linecap:butt;stroke-linejoin:miter;stroke-opacity:1"
         d="m 278.71257,179.94027 73.22477,29.28991 -19.26968,29.2899 -6.93708,34.68542 12.33259,14.64495 23.8944,17.72811 672.12633,2.31236 28.5191,-46.24723 14.6449,-35.4562 -3.0831,-26.20676 -15.4157,-18.49889 11.5618,-13.10338 -10.7911,-15.41574 -35.4562,-3.08315 -7.7078,-17.7281 -15.4158,-8.47866 -7.70784,6.1663 -4.62473,5.39551 -47.78879,-28.51912 -34.68542,-4.62472 138.74168,-170.343938 43.1641,-31.602269 10.791,-26.206763 -4.6247,-20.81125 -15.4158,-4.62472 -31.6022,-3.08315 -24.6652,24.66519 -5.3955,16.18653 4.6247,9.24944 -141.82484,181.90574 -24.66518,-7.70787 -16.95732,16.18653 -13.87416,0 -6.1663,-8.47866 6.1663,-24.66518 -21.58204,-3.08315 -16.18653,7.70787 -7.70787,3.85393 8.47866,-100.9731 -20.04047,-7.70787 -8.47865,147.99111 -20.81125,23.8944 -17.7281,6.1663 -8.47866,14.64495 -38.53935,0.77079 -23.8944,-0.77079 -8.47866,-13.10338 -4.62472,-81.70342 -18.49889,-1.54158 5.39551,69.37084 -56.26746,-86.32815 -29.2899,9.24944 -0.77079,33.14384 60.89218,70.14162 -62.43375,45.47644 -17.72811,-17.7281 -22.35282,-6.93709 -16.18653,-40.85171 -15.41574,0 3.85394,40.85171 -32.37306,0.77079 -10.79102,20.04046 -17.7281,6.93709 -84.78657,-32.37306 -23.12361,-16.18653 -14.64496,-0.77078 -13.87417,8.47866 -0.77078,13.87416 z"
         id="path4507"
         inkscape:connector-curvature="0" />
    </clipPath>
  </defs>
  <sodipodi:namedview
     id="base"
     pagecolor="#ffffff"
     bordercolor="#666666"
     borderopacity="1.0"
     inkscape:pageopacity="0.0"
     inkscape:pageshadow="2"
     inkscape:zoom="3.7242302"
     inkscape:cx="579.58194"
     inkscape:cy="106.06592"
     inkscape:document-units="px"
     inkscape:current-layer="layer1"
     showgrid="true"
     inkscape:window-width="1532"
     inkscape:window-height="1112"
     inkscape:window-x="156"
     inkscape:window-y="9"
     inkscape:window-maximized="0"
     fit-margin-top="0"
     fit-margin-left="0"
     fit-margin-right="0"
     fit-margin-bottom="0"
     inkscape:snap-global="false">
    <inkscape:grid
       type="xygrid"
       id="grid3878" />
  </sodipodi:namedview>
  <metadata
     id="metadata3886">
    <rdf:RDF>
      <cc:Work
         rdf:about="">
        <dc:format>image/svg+xml</dc:format>
        <dc:type
           rdf:resource="http://purl.org/dc/dcmitype/StillImage" />
        <dc:title></dc:title>
      </cc:Work>
    </rdf:RDF>
  </metadata>
  <g
     inkscape:label="Layer 1"
     inkscape:groupmode="layer"
     id="layer1"
     transform="translate(-260.98447,162.95175)">
    <path
       style="fill:none;stroke:#000000;stroke-width:1px;stroke-linecap:butt;stroke-linejoin:miter;stroke-opacity:1"
       d="M 50.415159,339.72314"
       id="path4521"
       inkscape:connector-curvature="0"
       transform="translate(260.98447,-162.95175)" />
    <path
       style="opacity:1;fill:#000000;stroke:#192619;stroke-width:1px;stroke-linecap:butt;stroke-linejoin:miter;stroke-opacity:0.99115043999999997;fill-opacity:1"
       d="m 393.50414,446.03691 -1.07404,1.47681 -5.77301,-0.13425 -1.47681,1.74533 -1.07405,8.59238 -1.61107,4.29619 -2.01384,3.08788 -3.08789,1.34256 -44.56607,-0.0699 -217.39442,-0.0385 c -3.21323,-2.12626 -7.84866,-4.77977 -11.05994,-7.25095 l -3.27017,-2.45263 -6.812858,-3.8152 -7.357888,-5.7228 -7.357888,-4.90526 -2.997658,-5.7228 -0.817543,-4.36023 0,-7.90292 0.272515,-4.36023 0.545028,-3.54269 2.997658,-2.99766 2.180115,-2.45263 0,-3.54268 -5.450287,0 -0.272514,-1.36257 10.62806,-8.44795 15.53332,-0.81754 6.54034,-4.63275 0,-2.72514 2.45263,-1.63509 5.17778,0.27252 0,-4.90526 3.54268,-2.72514 4.36023,1.09005 12.26575,-7.49155 -86.39226,-34.34201 -8.172827,-3.40382 -1.9076,1.09005 -4.087716,0.54503 -2.997658,-1.63508 -3.270173,-1.63509 -3.815201,-2.72514 -2.997658,-1.09006 -0.817543,-2.72514 0.272514,-4.36023 0.545029,-2.99766 2.45263,-2.18012 3.815201,-1.36257 3.815201,0.27252 3.815201,1.63508 4.36023,0.27252 4.36023,2.18011 2.997658,5.99532 6.676602,3.27017 89.72535,35.29061 3.61082,-0.54503 8.85672,0 6.26783,-5.99531 5.45029,0 2.18011,1.36257 5.31403,-7.08538 4.90526,-6.40408 1.9076,-0.68129 0.13626,-2.58889 -2.04386,-1.49883 0,-1.36257 -1.36257,-0.13625 0.40877,-2.04386 1.9076,-2.31637 3.40643,-0.68129 3.54269,1.36257 0.9538,2.72515 0.27251,0.40877 0,2.04385 -1.09005,0.27252 -0.40878,0.40877 0,1.9076 1.77135,0.81754 2.99766,0.40878 1.36257,1.09005 0.40877,2.99766 0.13626,2.04386 2.45263,-3.54269 3.67894,-3.27017 0.13626,-5.7228 2.04385,0 0,-1.22632 10.62806,0.13626 0,0.54503 1.09006,0.40877 0.13626,5.58655 0.68129,1.36257 1.63508,0 0,-7.49415 -1.77134,-18.1222 -1.49883,-13.08069 -1.77134,-12.67192 1.22631,-0.40877 2.31637,13.21694 2.31637,16.07835 1.63509,12.53566 0.81754,10.62806 2.31638,3.95146 0.68128,2.18012 0,1.77134 0.9538,0.13626 0.27252,2.72514 2.31637,1.22632 2.31637,1.09005 0.40877,1.22632 2.45263,0.13626 0.27252,-5.85906 0.81754,-1.77135 0.13626,-2.18011 0.68128,-1.77135 4.05939,-3.06223 0.3707,-2.09848 -1.13859,-1.2651 -1.01208,-2.27718 0,-2.40369 2.27718,-2.15067 3.28926,-0.12651 2.02416,1.01208 1.2651,2.15067 0,2.15067 -0.88557,1.01208 -0.37953,1.01208 0,1.01208 0.50604,1.64463 2.5302,-0.12651 2.27718,1.13859 1.13859,2.65671 1.51812,3.92181 1.01208,2.02416 0.12651,3.28926 -1.39161,0.37953 -0.12651,1.77114 0,1.39161 2.15067,1.39161 0.75906,1.89765 3.03624,0.25302 0.12651,-2.15067 24.66946,0.12651 2.81485,-2.49857 0.0158,-2.95717 0.0158,-2.95717 2.79903,0.45859 2.79904,0.4586 5.85109,-5.15528 -0.55348,-1.81858 -1.94509,-0.55348 0.0791,-3.3367 3.36833,-0.0474 0.71161,2.16648 2.10323,0.26883 4.45948,-4.01669 23.02482,-20.62113 11.2594,0.12651 0.63255,-1.26511 1.39161,-0.88557 1.77114,-0.37953 4.17483,-0.25302 1.01208,0.63255 0,0.50604 4.68087,-0.37953 2.40369,0 -0.25302,-1.77114 -1.39161,-0.63255 0,-1.01208 -3.66879,0 -0.88557,-1.2651 0,-1.2651 0.75906,-0.63255 3.7953,-0.37953 -0.30827,-2.74 -51.62651,-75.171 -6.28387,-3.49103 -7.85482,-12.21863 0,-4.36379 1.92007,-3.66559 2.61827,-2.26918 5.58566,-0.6982 7.15662,1.04731 6.80753,9.94946 1.57097,8.55303 50.79457,78.19921 -0.52366,-4.18924 0.17455,-1.74552 3.84014,-3.66559 2.61828,-0.3491 -1.57096,-22.69174 -1.92007,-30.19746 -0.69821,-14.8369 -0.69821,-10.12401 0.87276,0 2.26917,25.65912 1.39642,23.56449 2.09462,28.10284 2.61828,1.57097 2.26917,2.96738 0.3491,1.74552 0,3.14193 -0.87276,1.39641 -1.22186,1.22187 0,2.79282 1.22186,0.69821 6.31926,0.25419 1.90341,1.77313 15.37919,-0.5696 c 0,0 0.18987,2.46826 1.1392,2.27839 0.94934,-0.18986 19.55626,-0.37973 19.55626,-0.37973 l 18.41706,-1.7088 9.30346,0.18987 1.32906,3.22773 3.4176,0.18987 12.34133,-21.07519 13.67039,-0.18987 24.87252,-31.80264 c 0.5696,-4.84161 10.8224,-142.11513 10.8224,-142.11513 l 2.27839,0.18987 -10.06292,136.32419 c 0,0 2.65813,0 2.65813,-0.75947 0,-0.75946 2.18346,-2.65813 2.18346,-2.65813 1.9936,-0.5696 5.4112,-0.37973 5.4112,-0.37973 l -1.51893,-1.89867 c 0,0 2.46826,-5.88586 2.848,-6.83519 0.37973,-0.94934 1.32906,-5.1264 1.32906,-5.1264 l 1.51894,-3.03787 3.22773,-2.65813 3.60746,-1.1392 2.2784,1.89867 2.848,0.18986 -0.18987,-2.46826 2.46827,-0.75947 -0.37974,-3.03786 -1.89866,-1.1392 -1.7088,-2.848 3.60746,-3.60746 4.36694,-3.03787 9.30346,-0.75947 1.51893,2.65814 -0.18987,3.60746 1.51894,0.18987 2.27839,0.5696 -0.37973,1.89866 -3.22773,-0.18986 -1.1392,2.65813 0.37973,2.2784 -2.08853,0.75946 -0.5696,1.89867 -0.18987,-0.18987 0.37974,2.2784 -1.51893,1.1392 0,0.75947 -0.18987,-0.18987 1.32906,2.2784 2.2784,1.7088 -0.18986,5.88586 0.37973,4.17707 0.75947,2.27839 1.32906,1.89867 c 0,0 0.18987,0.5696 1.32907,0.75947 1.1392,0.18986 4.36693,0.5696 4.36693,0.5696 l 1.1392,1.1392 c 0,0 0.37973,0.75946 1.1392,0.75946 0.75946,0 8.92373,-0.18987 8.92373,-0.18987 l 2.46826,-3.22773 2.2784,-3.13279 17.46772,0.47466 1.32907,-2.08853 -0.18987,-0.18987 c 0,0 -2.2784,-0.75946 -2.2784,-1.51893 0,-0.75947 0.94934,-5.50613 0.94934,-5.50613 l 2.848,-3.9872 3.98719,-1.7088 3.03787,0.5696 2.08853,3.4176 0.75947,2.08853 2.08853,0.37974 -1.7088,1.89866 -0.75947,2.46827 c 0,0 1.32907,-1.51894 -0.18986,-0.18987 -1.51893,1.32907 -2.08853,1.7088 -2.08853,1.7088 l 0.18986,1.89867 0.18987,2.08853 13.10079,-0.18987 140.21646,-176.480969 c 0,0 2.37333,-2.942932 2.5632,-3.702399 0.18986,-0.759466 0.37973,-3.607464 0.37973,-3.607464 l 6.64533,-7.025063 1.7088,-3.607465 2.46826,-5.885863 c 0,0 0.75947,-8.923729 0.94934,-9.873062 0.18986,-0.949332 -0.5696,-4.366931 -0.18987,-5.126397 0.37973,-0.759466 2.2784,-4.936531 2.2784,-4.936531 l 3.4176,-4.556797 4.55679,-2.278399 3.60747,-0.379733 10.06293,-12.531193 3.22773,-2.088532 4.17706,0 3.4176,-1.329066 6.07573,-0.759466 4.5568,1.139199 c 0,0 3.79733,2.468265 4.5568,2.658132 0.75946,0.189866 4.93653,5.695997 4.93653,5.695997 l 2.2784,5.885863 0,7.025063 -0.5696,5.126397 -2.08854,4.366931 -5.69599,7.025063 -4.74667,4.936531 -1.51893,3.037865 0.75947,4.177064 c 0,0 -1.32907,1.329066 -1.89867,2.468265 -0.5696,1.1392 -1.89866,2.658132 -1.89866,2.658132 l -5.1264,1.898666 -4.13846,2.081635 c -2.27632,0.23858 -4.69293,1.312627 -4.69293,1.312627 l -4.02768,0.537024 c 0,0 0.80554,0.134256 -1.87958,2.282351 -2.68512,2.148095 -6.44428,6.175773 -6.44428,6.175773 l -3.22215,4.027678 -3.75916,3.222143 -3.49066,1.342559 -4.05071,4.239182 -132.0848,165.460319 -1.76043,2.50794 -1.51893,2.848 0,1.89866 c 0,0 8.92372,0.37973 9.39839,0.2848 0.47467,-0.0949 1.61387,1.7088 2.08853,1.7088 0.47467,0 14.52479,0.37973 14.99946,0.2848 0.47466,-0.0949 8.44906,0.66453 8.44906,0.66453 l 2.848,0.47467 c 1.9936,1.32906 60.28264,35.41011 60.28264,35.41011 l -0.0949,-0.0949 2.5632,-0.0949 0.47467,-3.4176 c 0,0 -0.0949,-1.80373 -0.0949,-2.18347 0,-0.37973 1.1392,-1.89866 1.1392,-1.89866 l 3.51253,-3.79733 c 0,0 8.16427,-0.47467 8.92373,-0.2848 0.75947,0.18986 3.22773,2.75306 3.22773,2.75306 l 0.0949,5.4112 -1.04429,3.46504 -0.85442,1.3765 0,2.18346 5.79093,0.0949 0,6.64533 27.05599,0 0.18986,0.94934 6.2656,0.0949 3.03787,2.94293 3.13279,1.23413 3.51254,3.03787 1.80373,3.03786 -0.0949,3.89227 c 0,0 -3.22773,-0.2848 -6.55039,-0.18987 -3.32267,0.0949 -6.17067,0.0949 -6.17067,0.0949 l -0.75946,1.1392 c 0,0 -0.2848,1.99359 0.18987,1.80373 0.47466,-0.18987 6.83519,7.30986 7.21492,7.40479 0.37974,0.0949 1.04427,2.37334 1.424,2.46827 0.37974,0.0949 3.7024,4.17706 3.7024,4.17706 0,0 2.5632,4.8416 3.03787,4.93653 0.47466,0.0949 3.70239,4.08214 3.70239,4.08214 l 1.7088,5.60106 0.2848,5.31626 0.0594,8.20454 -0.66749,10.67232 -2.4166,13.15708 -4.16194,10.33771 -5.773,10.60622 -8.99515,13.82836 -11.81452,15.03666 -12.88857,13.82836 -2.28235,0.9398 -162.9867,0.13425 -8.8609,-9.26366 -5.10171,-7.11556 -2.41661,-6.44429 -1.47682,-6.71279 -28.46225,-0.26852 c 0,0 -2.1481,-1.07404 -2.68512,-0.93979 -0.53703,0.13426 -18.52732,0.26851 -18.52732,0.26851 l -3.3564,10.0692 -2.95363,7.11556 -3.89342,11.14325 -1.87959,2.01383 -89.81722,0.13426 -4.96747,-12.21729 -1.07404,-6.57854 -2.41661,-1.61107 -12.68719,0.26851 z"
       id="path3024"
       inkscape:connector-curvature="0"
       transform="translate(260.98447,-162.95175)"
       sodipodi:nodetypes="cccccccccccccccccccccccccccccccccccccccccccccccccccccccccccccccccccccccccccccccccccccccccccccccccccccccccccccccccccccccccccccccccccccccccccccccccccccccccccccccccccccccccccccccccccccccccccccccccccccccccccccccccccccccccccccscccccccccccccccccccccccccccccccccccccccsccsccccccscccccccccsccccccccccssccccccccccscccccccccscccccsccccccccccscccccccsccccccccccccccccccsccccccccccccccccccccccccccccccccccccc" />
  </g>
</svg>
