<?xml version="1.0" encoding="UTF-8" standalone="no"?>
<!-- Created with Inkscape (http://www.inkscape.org/) -->

<svg
   xmlns:dc="http://purl.org/dc/elements/1.1/"
   xmlns:cc="http://creativecommons.org/ns#"
   xmlns:rdf="http://www.w3.org/1999/02/22-rdf-syntax-ns#"
   xmlns:svg="http://www.w3.org/2000/svg"
   xmlns="http://www.w3.org/2000/svg"
   xmlns:sodipodi="http://sodipodi.sourceforge.net/DTD/sodipodi-0.dtd"
   xmlns:inkscape="http://www.inkscape.org/namespaces/inkscape"
   width="36.125954"
   height="38.444134"
   id="svg2"
   version="1.1"
   inkscape:version="0.48.2 r9819"
   sodipodi:docname="mortar-template.svg">
  <defs
     id="defs4">
    <inkscape:perspective
       sodipodi:type="inkscape:persp3d"
       inkscape:vp_x="0 : 526.18109 : 1"
       inkscape:vp_y="0 : 1000 : 0"
       inkscape:vp_z="744.09448 : 526.18109 : 1"
       inkscape:persp3d-origin="372.04724 : 350.78739 : 1"
       id="perspective3954" />
    <clipPath
       clipPathUnits="userSpaceOnUse"
       id="clipPath3972">
      <rect
         style="opacity:0.34913797;fill:#d40000;fill-opacity:1;fill-rule:nonzero;stroke:#fb1414;stroke-width:0.40000001;stroke-linecap:round;stroke-linejoin:round;stroke-miterlimit:4;stroke-opacity:1;stroke-dasharray:none;stroke-dashoffset:18.50120495"
         id="rect3974"
         width="861.36078"
         height="493.96628"
         x="260.98447"
         y="-162.95175"
         ry="61.94611"
         rx="54.885082" />
    </clipPath>
    <clipPath
       clipPathUnits="userSpaceOnUse"
       id="clipPath4505">
      <path
         style="fill:none;stroke:#000000;stroke-width:1px;stroke-linecap:butt;stroke-linejoin:miter;stroke-opacity:1"
         d="m 278.71257,179.94027 73.22477,29.28991 -19.26968,29.2899 -6.93708,34.68542 12.33259,14.64495 23.8944,17.72811 672.12633,2.31236 28.5191,-46.24723 14.6449,-35.4562 -3.0831,-26.20676 -15.4157,-18.49889 11.5618,-13.10338 -10.7911,-15.41574 -35.4562,-3.08315 -7.7078,-17.7281 -15.4158,-8.47866 -7.70784,6.1663 -4.62473,5.39551 -47.78879,-28.51912 -34.68542,-4.62472 138.74168,-170.343938 43.1641,-31.602269 10.791,-26.206763 -4.6247,-20.81125 -15.4158,-4.62472 -31.6022,-3.08315 -24.6652,24.66519 -5.3955,16.18653 4.6247,9.24944 -141.82484,181.90574 -24.66518,-7.70787 -16.95732,16.18653 -13.87416,0 -6.1663,-8.47866 6.1663,-24.66518 -21.58204,-3.08315 -16.18653,7.70787 -7.70787,3.85393 8.47866,-100.9731 -20.04047,-7.70787 -8.47865,147.99111 -20.81125,23.8944 -17.7281,6.1663 -8.47866,14.64495 -38.53935,0.77079 -23.8944,-0.77079 -8.47866,-13.10338 -4.62472,-81.70342 -18.49889,-1.54158 5.39551,69.37084 -56.26746,-86.32815 -29.2899,9.24944 -0.77079,33.14384 60.89218,70.14162 -62.43375,45.47644 -17.72811,-17.7281 -22.35282,-6.93709 -16.18653,-40.85171 -15.41574,0 3.85394,40.85171 -32.37306,0.77079 -10.79102,20.04046 -17.7281,6.93709 -84.78657,-32.37306 -23.12361,-16.18653 -14.64496,-0.77078 -13.87417,8.47866 -0.77078,13.87416 z"
         id="path4507"
         inkscape:connector-curvature="0" />
    </clipPath>
    <clipPath
       id="clipPath3178"
       clipPathUnits="userSpaceOnUse">
      <path
         transform="matrix(1.0496608,0,0,1.1561858,0.36772345,-5.3773585)"
         d="m 208.95553,246.16373 a 50.535442,45.879368 0 1 1 -101.07088,0 50.535442,45.879368 0 1 1 101.07088,0 z"
         sodipodi:ry="45.879368"
         sodipodi:rx="50.535442"
         sodipodi:cy="246.16373"
         sodipodi:cx="158.42009"
         id="path3180"
         style="opacity:0.34913797;fill:#800000;fill-opacity:1;fill-rule:nonzero;stroke:#000000;stroke-width:0.92900002;stroke-linecap:round;stroke-linejoin:round;stroke-miterlimit:4;stroke-opacity:1;stroke-dasharray:none;stroke-dashoffset:18.50120495"
         sodipodi:type="arc" />
    </clipPath>
    <clipPath
       id="clipPath3170"
       clipPathUnits="userSpaceOnUse">
      <path
         transform="matrix(1.3984321,0,0,1.255788,-76.770026,4.6157498)"
         d="m 231.44096,225.1546 a 55.872894,53.260948 0 1 1 -111.74578,0 55.872894,53.260948 0 1 1 111.74578,0 z"
         sodipodi:ry="53.260948"
         sodipodi:rx="55.872894"
         sodipodi:cy="225.1546"
         sodipodi:cx="175.56807"
         id="path3172"
         style="opacity:0.34913797;fill:#800000;fill-opacity:1;fill-rule:nonzero;stroke:#000000;stroke-width:0.92900002;stroke-linecap:round;stroke-linejoin:round;stroke-miterlimit:4;stroke-opacity:1;stroke-dasharray:none;stroke-dashoffset:18.50120495"
         sodipodi:type="arc" />
    </clipPath>
    <clipPath
       clipPathUnits="userSpaceOnUse"
       id="clipPath3170-5">
      <path
         sodipodi:type="arc"
         style="opacity:0.34913797;fill:#800000;fill-opacity:1;fill-rule:nonzero;stroke:#000000;stroke-width:0.92900002;stroke-linecap:round;stroke-linejoin:round;stroke-miterlimit:4;stroke-opacity:1;stroke-dasharray:none;stroke-dashoffset:18.50120495"
         id="path3172-9"
         sodipodi:cx="175.56807"
         sodipodi:cy="225.1546"
         sodipodi:rx="55.872894"
         sodipodi:ry="53.260948"
         d="m 231.44096,225.1546 a 55.872894,53.260948 0 1 1 -111.74578,0 55.872894,53.260948 0 1 1 111.74578,0 z"
         transform="matrix(1.3984321,0,0,1.255788,-76.770026,4.6157498)" />
    </clipPath>
    <clipPath
       clipPathUnits="userSpaceOnUse"
       id="clipPath3178-9">
      <path
         sodipodi:type="arc"
         style="opacity:0.34913797;fill:#800000;fill-opacity:1;fill-rule:nonzero;stroke:#000000;stroke-width:0.92900002;stroke-linecap:round;stroke-linejoin:round;stroke-miterlimit:4;stroke-opacity:1;stroke-dasharray:none;stroke-dashoffset:18.50120495"
         id="path3180-3"
         sodipodi:cx="158.42009"
         sodipodi:cy="246.16373"
         sodipodi:rx="50.535442"
         sodipodi:ry="45.879368"
         d="m 208.95553,246.16373 a 50.535442,45.879368 0 1 1 -101.07088,0 50.535442,45.879368 0 1 1 101.07088,0 z"
         transform="matrix(1.0496608,0,0,1.1561858,0.36772345,-5.3773585)" />
    </clipPath>
    <clipPath
       id="clipPath4505-3"
       clipPathUnits="userSpaceOnUse">
      <path
         inkscape:connector-curvature="0"
         id="path4507-6"
         d="m 278.71257,179.94027 73.22477,29.28991 -19.26968,29.2899 -6.93708,34.68542 12.33259,14.64495 23.8944,17.72811 672.12633,2.31236 28.5191,-46.24723 14.6449,-35.4562 -3.0831,-26.20676 -15.4157,-18.49889 11.5618,-13.10338 -10.7911,-15.41574 -35.4562,-3.08315 -7.7078,-17.7281 -15.4158,-8.47866 -7.70784,6.1663 -4.62473,5.39551 -47.78879,-28.51912 -34.68542,-4.62472 138.74168,-170.343938 43.1641,-31.602269 10.791,-26.206763 -4.6247,-20.81125 -15.4158,-4.62472 -31.6022,-3.08315 -24.6652,24.66519 -5.3955,16.18653 4.6247,9.24944 -141.82484,181.90574 -24.66518,-7.70787 -16.95732,16.18653 -13.87416,0 -6.1663,-8.47866 6.1663,-24.66518 -21.58204,-3.08315 -16.18653,7.70787 -7.70787,3.85393 8.47866,-100.9731 -20.04047,-7.70787 -8.47865,147.99111 -20.81125,23.8944 -17.7281,6.1663 -8.47866,14.64495 -38.53935,0.77079 -23.8944,-0.77079 -8.47866,-13.10338 -4.62472,-81.70342 -18.49889,-1.54158 5.39551,69.37084 -56.26746,-86.32815 -29.2899,9.24944 -0.77079,33.14384 60.89218,70.14162 -62.43375,45.47644 -17.72811,-17.7281 -22.35282,-6.93709 -16.18653,-40.85171 -15.41574,0 3.85394,40.85171 -32.37306,0.77079 -10.79102,20.04046 -17.7281,6.93709 -84.78657,-32.37306 -23.12361,-16.18653 -14.64496,-0.77078 -13.87417,8.47866 -0.77078,13.87416 z"
         style="fill:none;stroke:#000000;stroke-width:1px;stroke-linecap:butt;stroke-linejoin:miter;stroke-opacity:1" />
    </clipPath>
    <clipPath
       id="clipPath3972-5"
       clipPathUnits="userSpaceOnUse">
      <rect
         rx="54.885082"
         ry="61.94611"
         y="-162.95175"
         x="260.98447"
         height="493.96628"
         width="861.36078"
         id="rect3974-5"
         style="opacity:0.34913797;fill:#d40000;fill-opacity:1;fill-rule:nonzero;stroke:#fb1414;stroke-width:0.40000001;stroke-linecap:round;stroke-linejoin:round;stroke-miterlimit:4;stroke-opacity:1;stroke-dasharray:none;stroke-dashoffset:18.50120495" />
    </clipPath>
    <inkscape:perspective
       id="perspective3954-7"
       inkscape:persp3d-origin="372.04724 : 350.78739 : 1"
       inkscape:vp_z="744.09448 : 526.18109 : 1"
       inkscape:vp_y="0 : 1000 : 0"
       inkscape:vp_x="0 : 526.18109 : 1"
       sodipodi:type="inkscape:persp3d" />
  </defs>
  <sodipodi:namedview
     id="base"
     pagecolor="#ffffff"
     bordercolor="#666666"
     borderopacity="1.0"
     inkscape:pageopacity="0.0"
     inkscape:pageshadow="2"
     inkscape:zoom="22.618112"
     inkscape:cx="10.231571"
     inkscape:cy="19.145178"
     inkscape:document-units="px"
     inkscape:current-layer="layer1"
     showgrid="true"
     showguides="false"
     inkscape:snap-global="true"
     inkscape:snap-bbox="true"
     inkscape:bbox-nodes="true"
     inkscape:window-width="1789"
     inkscape:window-height="1085"
     inkscape:window-x="5"
     inkscape:window-y="8"
     inkscape:window-maximized="0"
     objecttolerance="1"
     guidetolerance="1"
     gridtolerance="1"
     fit-margin-top="0"
     fit-margin-left="0"
     fit-margin-right="0"
     fit-margin-bottom="0">
    <inkscape:grid
       type="xygrid"
       id="grid3829"
       empspacing="5"
       visible="true"
       enabled="true"
       snapvisiblegridlinesonly="true"
       units="in" />
  </sodipodi:namedview>
  <metadata
     id="metadata7">
    <rdf:RDF>
      <cc:Work
         rdf:about="">
        <dc:format>image/svg+xml</dc:format>
        <dc:type
           rdf:resource="http://purl.org/dc/dcmitype/StillImage" />
        <dc:title></dc:title>
      </cc:Work>
    </rdf:RDF>
  </metadata>
  <g
     inkscape:label="Layer 1"
     inkscape:groupmode="layer"
     id="layer1"
     transform="translate(-266.99906,-507.80588)">
    <text
       sodipodi:linespacing="125%"
       id="text4300"
       y="467.92365"
       x="218.57919"
       style="font-size:16px;font-style:normal;font-variant:normal;font-weight:normal;font-stretch:normal;text-align:center;line-height:125%;letter-spacing:0px;word-spacing:0px;writing-mode:lr-tb;text-anchor:middle;fill:#000000;fill-opacity:1;stroke:none;font-family:Museo;-inkscape-font-specification:Museo"
       xml:space="preserve"><tspan
         y="467.92365"
         x="218.57919"
         id="tspan4302"
         sodipodi:role="line"></tspan></text>
    <rect
       style="opacity:1;fill:none;stroke:#000000;stroke-width:0.92900002000000004;stroke-linecap:round;stroke-linejoin:round;stroke-miterlimit:4;stroke-opacity:1;stroke-dasharray:none;stroke-dashoffset:18.50120495000000176"
       id="rect3846"
       width="35.186356"
       height="37.514732"
       x="267.46451"
       y="508.26669"
       ry="0" />
    <text
       transform="scale(0.81053448,1.2337538)"
       sodipodi:linespacing="125%"
       id="text3860"
       y="420.15042"
       x="350.34372"
       style="font-size:7.04684496px;font-style:normal;font-variant:normal;font-weight:normal;font-stretch:normal;text-align:center;line-height:125%;letter-spacing:0px;word-spacing:0px;writing-mode:lr-tb;text-anchor:middle;fill:#000000;fill-opacity:1;stroke:none;font-family:Arial;-inkscape-font-specification:Arial"
       xml:space="preserve"><tspan
         y="420.15042"
         x="350.34372"
         id="tspan3862"
         sodipodi:role="line">M</tspan></text>
    <text
       sodipodi:linespacing="125%"
       id="text3872"
       y="519.30518"
       x="272.14456"
       style="font-size:10px;font-style:normal;font-variant:normal;font-weight:normal;font-stretch:normal;text-align:center;line-height:125%;letter-spacing:0px;word-spacing:0px;writing-mode:lr-tb;text-anchor:middle;fill:#000000;fill-opacity:1;stroke:none;font-family:Verdana;-inkscape-font-specification:Verdana"
       xml:space="preserve"><tspan
         y="519.30518"
         x="272.14456"
         id="tspan3874"
         sodipodi:role="line">3</tspan></text>
    <text
       sodipodi:linespacing="125%"
       id="text3876"
       y="518.80774"
       x="295.26599"
       style="font-size:10px;font-style:normal;font-variant:normal;font-weight:normal;font-stretch:normal;text-align:center;line-height:125%;letter-spacing:0px;word-spacing:0px;writing-mode:lr-tb;text-anchor:middle;fill:#000000;fill-opacity:1;stroke:none;font-family:Verdana;-inkscape-font-specification:Verdana"
       xml:space="preserve"><tspan
         y="518.80774"
         x="295.26599"
         id="tspan3878"
         sodipodi:role="line">12</tspan></text>
    <text
       sodipodi:linespacing="125%"
       id="text3880"
       y="541.22205"
       x="297.4516"
       style="font-size:10px;font-style:normal;font-variant:normal;font-weight:normal;font-stretch:normal;text-align:center;line-height:125%;letter-spacing:0px;word-spacing:0px;writing-mode:lr-tb;text-anchor:middle;fill:#000000;fill-opacity:1;stroke:none;font-family:Verdana;-inkscape-font-specification:Verdana"
       xml:space="preserve"><tspan
         y="541.22205"
         x="297.4516"
         id="tspan3882"
         sodipodi:role="line">1</tspan></text>
    <text
       transform="scale(0.99132845,1.0087474)"
       sodipodi:linespacing="125%"
       id="text3884"
       y="535.39832"
       x="287.84366"
       style="font-size:4.79399061px;font-style:normal;font-variant:normal;font-weight:normal;font-stretch:normal;text-align:center;line-height:125%;letter-spacing:0px;word-spacing:0px;writing-mode:lr-tb;text-anchor:middle;fill:#000000;fill-opacity:1;stroke:none;font-family:Verdana;-inkscape-font-specification:Verdana"
       xml:space="preserve"><tspan
         y="535.39832"
         x="287.84366"
         id="tspan3886"
         sodipodi:role="line">84</tspan></text>
    <text
       xml:space="preserve"
       style="font-size:10px;font-style:normal;font-variant:normal;font-weight:normal;font-stretch:normal;text-align:center;line-height:125%;letter-spacing:0px;word-spacing:0px;writing-mode:lr-tb;text-anchor:middle;fill:#000000;fill-opacity:1;stroke:none;font-family:Verdana;-inkscape-font-specification:Verdana"
       x="272.80942"
       y="541.78406"
       id="text4292"
       sodipodi:linespacing="125%"><tspan
         sodipodi:role="line"
         id="tspan4294"
         x="272.80942"
         y="541.78406">3</tspan></text>
    <text
       transform="scale(0.88559511,1.1291842)"
       sodipodi:linespacing="125%"
       id="text4296"
       y="470.43127"
       x="314.58063"
       style="font-size:10.6768055px;font-style:normal;font-variant:normal;font-weight:normal;font-stretch:normal;text-align:center;line-height:125%;letter-spacing:0px;word-spacing:0px;writing-mode:lr-tb;text-anchor:middle;fill:#000000;fill-opacity:1;stroke:none;font-family:Verdana;-inkscape-font-specification:Verdana"
       xml:space="preserve"><tspan
         style="font-size:4.27072239px"
         y="470.43127"
         x="314.58063"
         id="tspan4298"
         sodipodi:role="line">82</tspan></text>
    <text
       xml:space="preserve"
       style="font-size:9.64334583px;font-style:normal;font-variant:normal;font-weight:normal;font-stretch:normal;text-align:center;line-height:125%;letter-spacing:0px;word-spacing:0px;writing-mode:lr-tb;text-anchor:middle;fill:#000000;fill-opacity:1;stroke:none;font-family:Verdana;-inkscape-font-specification:Verdana"
       x="343.89395"
       y="449.58643"
       id="text4304"
       sodipodi:linespacing="125%"
       transform="scale(0.84650007,1.1813348)"><tspan
         sodipodi:role="line"
         id="tspan4306"
         x="343.89395"
         y="449.58643"
         style="font-size:3.85733795px">mm</tspan></text>
    <path
       transform="matrix(1.0868049,0,0,1.0868049,84.50845,49.22211)"
       d="m 186.32662,445.42508 a 1.8757714,1.8757714 0 1 1 -3.75154,0 1.8757714,1.8757714 0 1 1 3.75154,0 z"
       sodipodi:ry="1.8757714"
       sodipodi:rx="1.8757714"
       sodipodi:cy="445.42508"
       sodipodi:cx="184.45085"
       id="path4308"
       style="fill:#000000;fill-opacity:1;stroke:#000000;stroke-width:1;stroke-linecap:round;stroke-linejoin:round;stroke-miterlimit:4;stroke-opacity:1;stroke-dasharray:none;stroke-dashoffset:18.50120495"
       sodipodi:type="arc" />
    <path
       inkscape:connector-curvature="0"
       id="path4818"
       d="m 284.96392,531.3244 c 0,-9.80438 0,-9.80438 0,-9.80438"
       style="fill:none;stroke:#000000;stroke-width:1.44983757px;stroke-linecap:butt;stroke-linejoin:miter;stroke-opacity:1"
       sodipodi:nodetypes="cc" />
    <flowRoot
       xml:space="preserve"
       id="flowRoot4239"
       style="font-size:16px;font-style:normal;font-variant:normal;font-weight:normal;font-stretch:normal;text-align:center;line-height:125%;letter-spacing:0px;word-spacing:0px;writing-mode:lr-tb;text-anchor:middle;fill:#000000;fill-opacity:1;stroke:none;font-family:Museo;-inkscape-font-specification:Museo"><flowRegion
         id="flowRegion4241"><rect
           id="rect4243"
           width="17.987749"
           height="20.557426"
           x="257.8244"
           y="262.61438" /></flowRegion><flowPara
         id="flowPara4245" /></flowRoot>  </g>
</svg>
